<svg xmlns="http://www.w3.org/2000/svg" width="1200" height="627" viewBox="0 0 1200 627">
  <defs>
    <!-- Colors -->
    <linearGradient id="bgGrad" x1="0" y1="0" x2="1" y2="1">
      <stop offset="0%" stop-color="#F3F8FF"/>
      <stop offset="100%" stop-color="#E9F3FF"/>
    </linearGradient>

    <!-- Subtle neural network pattern -->
    <pattern id="net" width="80" height="80" patternUnits="userSpaceOnUse">
      <g opacity="0.25">
        <circle cx="10" cy="10" r="2" fill="#CFE3FF"/>
        <circle cx="40" cy="20" r="2" fill="#CFE3FF"/>
        <circle cx="70" cy="12" r="2" fill="#CFE3FF"/>
        <circle cx="20" cy="50" r="2" fill="#CFE3FF"/>
        <circle cx="60" cy="60" r="2" fill="#CFE3FF"/>
        <line x1="10" y1="10" x2="40" y2="20" stroke="#D9E9FF" stroke-width="1"/>
        <line x1="40" y1="20" x2="70" y2="12" stroke="#D9E9FF" stroke-width="1"/>
        <line x1="10" y1="10" x2="20" y2="50" stroke="#D9E9FF" stroke-width="1"/>
        <line x1="20" y1="50" x2="60" y2="60" stroke="#D9E9FF" stroke-width="1"/>
      </g>
    </pattern>

    <!-- Drop shadow -->
    <filter id="softShadow" x="-20%" y="-20%" width="140%" height="140%">
      <feGaussianBlur in="SourceAlpha" stdDeviation="6" result="blur"/>
      <feOffset dy="4" dx="0" result="off"/>
      <feColorMatrix in="off" type="matrix"
        values="0 0 0 0 0
                0 0 0 0 0.18
                0 0 0 0 0.45
                0 0 0 0.18 0" result="shadow"/>
      <feBlend in="SourceGraphic" in2="shadow" mode="normal"/>
    </filter>

    <!-- Arrow marker -->
    <marker id="arrow" viewBox="0 0 10 10" refX="9" refY="5" markerWidth="8" markerHeight="8" orient="auto-start-reverse">
      <path d="M 0 0 L 10 5 L 0 10 z" fill="#1A56DB"/>
    </marker>

    <!-- Color tokens -->
    <style>
      .font { font-family: 'Segoe UI', 'Inter', Arial, sans-serif; }
      .muted { fill: #6B7C93; }
      .primary { fill: #1A56DB; }
      .primary-stroke { stroke: #1A56DB; }
      .green { fill: #22C55E; }
      .green-stroke { stroke: #22C55E; }
      .dark { fill: #0F172A; }
      .bg-panel { fill: #FFFFFF; }
      .note { fill: #64748B; }
      .accent { fill: #0EA5E9; }
      .warn { fill: #DC3545; }
      .ok { fill: #28A745; }
      .mutebg { fill: #EEF2F7; }
    </style>
  </defs>

  <!-- Background -->
  <rect width="1200" height="627" fill="url(#bgGrad)"/>
  <rect x="0" y="0" width="1200" height="627" fill="url(#net)" opacity="0.35"/>

  <!-- Top banner -->
  <g>
    <rect x="24" y="20" width="1152" height="44" rx="8" fill="#0B5FFF" opacity="0.95" filter="url(#softShadow)"/>
    <text x="600" y="48" text-anchor="middle" class="font" font-size="20" fill="#FFFFFF">Enterprise level AI-Powered Power BI Report Generation</text>
  </g>

  <!-- Headline and subheading -->
  <g class="font">
    <text x="600" y="98" text-anchor="middle" font-size="30" class="dark">Transform Your BI Workflow with AI</text>
    <text x="600" y="125" text-anchor="middle" font-size="16" class="muted">
      80% Faster Report Generation • Enterprise-Grade Security • Built-in Compliance
    </text>
  </g>

  <!-- Layout guide (three columns) -->
  <!-- Left: Traditional BI -->
  <g transform="translate(40,155)">
    <!-- Panel -->
    <rect x="0" y="0" width="330" height="360" rx="16" class="bg-panel" filter="url(#softShadow)"/>
    <text x="16" y="36" class="font muted" font-size="16">Traditional BI (Before)</text>

    <!-- Overwhelmed person -->
    <g transform="translate(40,80)">
      <!-- Person -->
      <circle cx="40" cy="18" r="14" fill="#6B8BB6"/>
      <path d="M15,70 q25,-35 50,0 v35 h-50 z" fill="#90A4AE"/>
      <!-- Stress marks -->
      <path d="M10,8 l-10,-6" stroke="#6B8BB6" stroke-width="2"/>
      <path d="M70,4 l10,-6" stroke="#6B8BB6" stroke-width="2"/>
    </g>

    <!-- Data source tiles -->
    <g class="font" font-size="13">
      <g transform="translate(200,78)">
        <rect x="0" y="0" width="96" height="48" rx="8" fill="#E3ECF8" stroke="#9DB3D8"/>
        <text x="48" y="29" text-anchor="middle" class="muted">SQL</text>
      </g>
      <g transform="translate(210,142)">
        <rect x="0" y="0" width="96" height="48" rx="8" fill="#E3ECF8" stroke="#9DB3D8"/>
        <text x="48" y="29" text-anchor="middle" class="muted">Excel</text>
      </g>
      <g transform="translate(178,206)">
        <rect x="0" y="0" width="96" height="48" rx="8" fill="#E3ECF8" stroke="#9DB3D8"/>
        <text x="48" y="29" text-anchor="middle" class="muted">APIs</text>
      </g>
    </g>

    <!-- Connecting lines -->
    <g stroke="#9DB3D8" stroke-width="2" opacity="0.9">
      <path d="M90,140 C140,120 175,110 200,102" fill="none"/>
      <path d="M90,160 C135,160 180,170 210,168" fill="none"/>
      <path d="M90,190 C135,205 160,220 178,230" fill="none"/>
    </g>

    <!-- Warning icons -->
    <g transform="translate(36,264)">
      <polygon points="0,36 20,0 40,36" class="warn"/>
      <rect x="18.5" y="12" width="3" height="12" fill="#FFFFFF"/>
      <circle cx="20" cy="28" r="2" fill="#FFFFFF"/>
    </g>
    <g transform="translate(82,252)" opacity="0.8">
      <polygon points="0,32 18,0 36,32" class="warn"/>
      <rect x="16.5" y="11" width="3" height="10" fill="#FFFFFF"/>
      <circle cx="18" cy="24" r="2" fill="#FFFFFF"/>
    </g>

    <!-- Clock "3 weeks" -->
    <g transform="translate(238,16)">
      <circle cx="36" cy="36" r="32" fill="#FFFFFF" stroke="#9DB3D8" stroke-width="2"/>
      <line x1="36" y1="36" x2="36" y2="18" stroke="#9DB3D8" stroke-width="3" stroke-linecap="round"/>
      <line x1="36" y1="36" x2="54" y2="36" stroke="#9DB3D8" stroke-width="3" stroke-linecap="round"/>
      <text x="36" y="78" text-anchor="middle" class="font muted" font-size="14">3 weeks</text>
    </g>

    <!-- Notes -->
    <text x="16" y="326" class="font note" font-size="13">Manual stitching, long cycles, high QA load</text>
    <text x="16" y="346" class="font note" font-size="13">Data quality issues flagged late</text>
  </g>

  <!-- Center: Transformation with BI Forge -->
  <g transform="translate(400,155)">
    <rect x="0" y="0" width="400" height="360" rx="16" class="bg-panel" filter="url(#softShadow)"/>
    <text x="200" y="34" text-anchor="middle" class="font muted" font-size="16">AI Transformation</text>

    <!-- Flow arrows left -> right -->
    <g stroke-width="3" fill="none" marker-end="url(#arrow)" opacity="0.8">
      <path d="M-60,80 C40,70 80,70 120,80" class="primary-stroke"/>
      <path d="M-60,180 C40,170 80,170 120,180" class="green-stroke"/>
      <path d="M-60,260 C40,250 80,250 120,260" stroke="#0EA5E9"/>
    </g>

    <!-- BI Forge Core -->
    <g transform="translate(70,76)">
      <circle cx="130" cy="104" r="96" fill="#F4FAFF" stroke="#1A56DB" stroke-width="2"/>
      <!-- Brain shape -->
      <path d="M80,95
               c-6,-14 8,-30 24,-30
               c6,-16 38,-18 48,0
               c12,-4 28,6 26,20
               c16,4 22,30 2,38
               c2,18 -20,28 -34,20
               c-14,16 -44,12 -52,-4
               c-18,6 -34,-14 -24,-28 z"
            fill="#D9ECFF" stroke="#1A56DB" stroke-width="2" opacity="0.95"/>
      <!-- Integrated chart line -->
      <polyline points="60,140 90,126 112,136 136,116 160,132 186,98 204,110"
                fill="none" stroke="#22C55E" stroke-width="3"/>
      <!-- Chart dots -->
      <g fill="#22C55E">
        <circle cx="60" cy="140" r="4"/>
        <circle cx="90" cy="126" r="4"/>
        <circle cx="112" cy="136" r="4"/>
        <circle cx="136" cy="116" r="4"/>
        <circle cx="160" cy="132" r="4"/>
        <circle cx="186" cy="98" r="4"/>
        <circle cx="204" cy="110" r="4"/>
      </g>
      <!-- BI Forge label -->
      <text x="130" y="196" text-anchor="middle" class="font" font-size="20" fill="#1A56DB">BI Forge</text>
      <text x="130" y="218" text-anchor="middle" class="font muted" font-size="13">From Question to Dashboard in Minutes</text>
    </g>

    <!-- Tool badges -->
    <g class="font" font-size="12">
      <g transform="translate(36,300)">
        <rect x="0" y="0" rx="12" ry="12" width="92" height="28" fill="#E6F0FF" stroke="#1A56DB"/>
        <text x="46" y="19" text-anchor="middle" class="dark">GPT-4</text>
      </g>
      <g transform="translate(138,300)">
        <rect x="0" y="0" rx="12" ry="12" width="110" height="28" fill="#E6FFF3" stroke="#22C55E"/>
        <text x="55" y="19" text-anchor="middle" class="dark">Power BI</text>
      </g>
      <g transform="translate(262,300)">
        <rect x="0" y="0" rx="12" ry="12" width="102" height="28" fill="#E8FAFF" stroke="#0EA5E9"/>
        <text x="51" y="19" text-anchor="middle" class="dark">Automation</text>
      </g>
    </g>
  </g>

  <!-- Right: AI-Powered BI -->
  <g transform="translate(840,155)">
    <rect x="0" y="0" width="320" height="360" rx="16" class="bg-panel" filter="url(#softShadow)"/>
    <text x="16" y="36" class="font muted" font-size="16">AI-Powered BI (After)</text>

    <!-- Dashboard container -->
    <g transform="translate(16,56)">
      <rect x="0" y="0" width="288" height="240" rx="12" class="mutebg"/>
      <!-- Header -->
      <rect x="0" y="0" width="288" height="36" rx="12" fill="#F8FAFF"/>
      <circle cx="18" cy="18" r="4" fill="#22C55E"/>
      <circle cx="34" cy="18" r="4" fill="#1A56DB"/>
      <circle cx="50" cy="18" r="4" fill="#0EA5E9"/>
      <text x="144" y="23" text-anchor="middle" class="font muted" font-size="12">Sales Overview</text>

      <!-- Row 1: KPI cards -->
      <g transform="translate(12,48)">
        <rect x="0" y="0" width="120" height="60" rx="8" fill="#FFFFFF"/>
        <text x="10" y="20" class="font muted" font-size="12">Total Sales</text>
        <text x="10" y="44" class="font" font-size="18" fill="#1A56DB">$12.4M</text>

        <rect x="144" y="0" width="120" height="60" rx="8" fill="#FFFFFF"/>
        <text x="154" y="20" class="font muted" font-size="12">Gross Margin</text>
        <text x="154" y="44" class="font" font-size="18" fill="#22C55E">38.6%</text>
      </g>

      <!-- Row 2: Bar chart -->
      <g transform="translate(12,118)">
        <rect x="0" y="0" width="252" height="70" rx="8" fill="#FFFFFF"/>
        <!-- Bars -->
        <rect x="14" y="22" width="28" height="36" fill="#1A56DB" opacity="0.85"/>
        <rect x="54" y="8" width="28" height="50" fill="#1A56DB"/>
        <rect x="94" y="30" width="28" height="28" fill="#1A56DB" opacity="0.9"/>
        <rect x="134" y="16" width="28" height="42" fill="#0EA5E9"/>
        <rect x="174" y="12" width="28" height="46" fill="#22C55E"/>
      </g>

      <!-- Row 3: Line chart -->
      <g transform="translate(12,196)">
        <rect x="0" y="0" width="252" height="34" rx="8" fill="#FFFFFF"/>
        <polyline points="8,26 28,18 48,20 68,14 88,16 108,10 128,14 148,12 168,8 188,12 208,10 228,6 244,8"
                  fill="none" stroke="#1A56DB" stroke-width="2"/>
      </g>
    </g>

    <!-- Clock "2 days" -->
    <g transform="translate(232,16)">
      <circle cx="36" cy="36" r="32" fill="#FFFFFF" stroke="#22C55E" stroke-width="2"/>
      <line x1="36" y1="36" x2="36" y2="18" stroke="#22C55E" stroke-width="3" stroke-linecap="round"/>
      <line x1="36" y1="36" x2="54" y2="36" stroke="#22C55E" stroke-width="3" stroke-linecap="round"/>
      <text x="36" y="78" text-anchor="middle" class="font" font-size="14" fill="#22C55E">2 days</text>
    </g>

    <!-- Green checkmarks -->
    <g transform="translate(16,316)">
      <g>
        <circle cx="10" cy="10" r="8" class="green"/>
        <path d="M6,10 l3,3 l6,-7" fill="none" stroke="#FFFFFF" stroke-width="2" stroke-linecap="round"/>
        <text x="24" y="14" class="font note" font-size="13">Quality</text>
      </g>
      <g transform="translate(110,0)">
        <circle cx="10" cy="10" r="8" class="green"/>
        <path d="M6,10 l3,3 l6,-7" fill="none" stroke="#FFFFFF" stroke-width="2" stroke-linecap="round"/>
        <text x="24" y="14" class="font note" font-size="13">Compliance</text>
      </g>
    </g>
  </g>

  <!-- Centered statistics -->
  <g class="font" transform="translate(0,0)">
    <text x="600" y="540" text-anchor="middle" font-size="16" class="dark">
      80% reduction in development time • 60% fewer data quality issues
    </text>
  </g>

  <!-- Bottom feature bar -->
  <g transform="translate(24,564)">
    <rect x="0" y="0" width="1152" height="48" rx="10" fill="#FFFFFF" filter="url(#softShadow)"/>

    <!-- Shield - Enterprise Security -->
    <g transform="translate(24,10)">
      <path d="M20,2 l18,8 v14 c0,10 -8,18 -18,22 c-10,-4 -18,-12 -18,-22 V10 z" fill="#1A56DB" opacity="0.9"/>
      <path d="M20,9 v20" stroke="#FFFFFF" stroke-width="2"/>
      <path d="M12,19 h16" stroke="#FFFFFF" stroke-width="2"/>
      <text x="48" y="22" class="font dark" font-size="14">Enterprise Security</text>
    </g>

    <!-- Database cluster - Multi-Source Integration -->
    <g transform="translate(310,10)">
      <ellipse cx="16" cy="8" rx="14" ry="6" fill="#0EA5E9"/>
      <rect x="2" y="8" width="28" height="20" rx="3" fill="#0EA5E9"/>
      <ellipse cx="16" cy="28" rx="14" ry="6" fill="#0EA5E9"/>
      <rect x="38" y="8" width="28" height="20" rx="3" fill="#0EA5E9" opacity="0.8"/>
      <ellipse cx="52" cy="8" rx="14" ry="6" fill="#0EA5E9" opacity="0.8"/>
      <text x="74" y="22" class="font dark" font-size="14">Multi-Source Integration</text>
    </g>

    <!-- Checkmark - Compliance Ready -->
    <g transform="translate(676,10)">
      <circle cx="18" cy="18" r="16" class="green"/>
      <path d="M10,18 l6,6 l10,-12" fill="none" stroke="#FFFFFF" stroke-width="3" stroke-linecap="round"/>
      <text x="44" y="22" class="font dark" font-size="14">Compliance Ready</text>
    </g>

    <!-- Speedometer - Performance Optimized -->
    <g transform="translate(940,10)">
      <path d="M18,34 a16,16 0 1 1 0,-32 a16,16 0 1 1 0,32" fill="#E6FFF3"/>
      <path d="M6,22 A12,12 0 0 1 30,22" fill="none" stroke="#22C55E" stroke-width="3"/>
      <line x1="18" y1="22" x2="28" y2="16" stroke="#1A56DB" stroke-width="3" stroke-linecap="round"/>
      <circle cx="18" cy="22" r="3" fill="#1A56DB"/>
      <text x="44" y="22" class="font dark" font-size="14">Performance Optimized</text>
    </g>
  </g>

  <!-- Center label over arrows to reinforce left-to-right -->
  <g class="font">
    <text x="600" y="520" text-anchor="middle" font-size="12" class="muted">Traditional BI → AI-Powered BI</text>
  </g>
</svg>
